<?xml version="1.0" encoding="UTF-8"?>
<svg width="388px" height="75px" viewBox="0 0 388 75" version="1.1" xmlns="http://www.w3.org/2000/svg" xmlns:xlink="http://www.w3.org/1999/xlink">
    <!-- Generator: Sketch 56.3 (81716) - https://sketch.com -->
    <title>pageproofer logo</title>
    <desc>Created with Sketch.</desc>
    <defs>
        <rect id="path-1" x="0" y="0" width="75" height="75" rx="4"></rect>
        <rect id="path-3" x="0" y="0" width="75" height="75" rx="4"></rect>
    </defs>
    <g id="Page-1" stroke="none" stroke-width="1" fill="none" fill-rule="evenodd">
        <g id="pageproofer-logo">
            <g>
                <g id="Rectangle-2" fill="#FFF740" fill-rule="nonzero">
                    <rect id="path-1" x="0" y="0" width="75" height="75" rx="4"></rect>
                </g>
                <g id="Triangle-Clipped">
                    <mask id="mask-2" fill="white">
                        <use xlink:href="#path-1"></use>
                    </mask>
                    <g id="path-1" opacity="0.400000006"></g>
                    <polygon id="Triangle" fill-opacity="0.1" fill="#000000" fill-rule="nonzero" mask="url(#mask-2)" points="75 0 75 75 0 75"></polygon>
                </g>
                <g id="Combined-Shape-Clipped">
                    <mask id="mask-4" fill="white">
                        <use xlink:href="#path-3"></use>
                    </mask>
                    <g id="path-1"></g>
                    <path d="M43.3760688,25.0189833 L21.9251302,46.4699218 L21.9251302,53.4498697 L28.9050782,53.4498697 L50.3560167,31.9989312 L43.3760688,25.0189833 Z M45.843853,22.5511991 L49.8449218,18.5501302 L56.8248697,25.5300782 L52.8238009,29.531147 L45.843853,22.5511991 Z" id="Combined-Shape" fill="#000000" fill-rule="nonzero" mask="url(#mask-4)"></path>
                </g>
            </g>
            <path d="M106.578125,37.859375 L108.96875,37.859375 C111.203136,37.859375 112.874994,37.4179732 113.984375,36.5351562 C115.093756,35.6523393 115.648438,34.3671959 115.648438,32.6796875 C115.648438,30.976554 115.183598,29.7187541 114.253906,28.90625 C113.324214,28.0937459 111.867197,27.6875 109.882812,27.6875 L106.578125,27.6875 L106.578125,37.859375 Z M122.984375,32.421875 C122.984375,36.1093934 121.832043,38.9296777 119.527344,40.8828125 C117.222645,42.8359473 113.945334,43.8125 109.695312,43.8125 L106.578125,43.8125 L106.578125,56 L99.3125,56 L99.3125,21.734375 L110.257812,21.734375 C114.414083,21.734375 117.574208,22.6288973 119.738281,24.4179688 C121.902355,26.2070402 122.984375,28.8749823 122.984375,32.421875 Z M145.53125,56 L144.148438,52.4375 L143.960938,52.4375 C142.757806,53.9531326 141.519538,55.0039033 140.246094,55.5898438 C138.97265,56.1757842 137.31251,56.46875 135.265625,56.46875 C132.749987,56.46875 130.769538,55.7500072 129.324219,54.3125 C127.878899,52.8749928 127.15625,50.8281383 127.15625,48.171875 C127.15625,45.3906111 128.128897,43.3398504 130.074219,42.0195312 C132.019541,40.6992121 134.953105,39.9687507 138.875,39.828125 L143.421875,39.6875 L143.421875,38.5390625 C143.421875,35.8827992 142.062514,34.5546875 139.34375,34.5546875 C137.24999,34.5546875 134.789077,35.1874937 131.960938,36.453125 L129.59375,31.625 C132.60939,30.0468671 135.953107,29.2578125 139.625,29.2578125 C143.140643,29.2578125 145.835928,30.0234298 147.710938,31.5546875 C149.585947,33.0859452 150.523438,35.4140469 150.523438,38.5390625 L150.523438,56 L145.53125,56 Z M143.421875,43.859375 L140.65625,43.953125 C138.578115,44.0156253 137.031255,44.3906216 136.015625,45.078125 C134.999995,45.7656284 134.492188,46.812493 134.492188,48.21875 C134.492188,50.2343851 135.648426,51.2421875 137.960938,51.2421875 C139.617196,51.2421875 140.941401,50.7656298 141.933594,49.8125 C142.925786,48.859375 143.421875,47.5937579 143.421875,46.015625 L143.421875,43.859375 Z M180.6875,29.796875 L180.6875,33.4296875 L176.585938,34.484375 C177.335941,35.6562559 177.710938,36.9687427 177.710938,38.421875 C177.710938,41.2343891 176.730479,43.4257734 174.769531,44.9960938 C172.808584,46.5664141 170.085955,47.3515625 166.601562,47.3515625 L165.3125,47.28125 L164.257812,47.1640625 C163.523434,47.7265653 163.15625,48.3515591 163.15625,49.0390625 C163.15625,50.0703177 164.468737,50.5859375 167.09375,50.5859375 L171.546875,50.5859375 C174.421889,50.5859375 176.613274,51.2031188 178.121094,52.4375 C179.628914,53.6718812 180.382812,55.484363 180.382812,57.875 C180.382812,60.9375153 179.105482,63.3124916 176.550781,65 C173.996081,66.6875084 170.328149,67.53125 165.546875,67.53125 C161.890607,67.53125 159.097666,66.8945376 157.167969,65.6210938 C155.238272,64.3476499 154.273438,62.5625115 154.273438,60.265625 C154.273438,58.6874921 154.76562,57.3671928 155.75,56.3046875 C156.73438,55.2421822 158.179678,54.4843773 160.085938,54.03125 C159.351559,53.7187484 158.71094,53.2070348 158.164062,52.4960938 C157.617185,51.7851527 157.34375,51.031254 157.34375,50.234375 C157.34375,49.23437 157.63281,48.4023471 158.210938,47.7382812 C158.789065,47.0742154 159.624995,46.4218782 160.71875,45.78125 C159.343743,45.187497 158.25391,44.2343816 157.449219,42.921875 C156.644527,41.6093684 156.242188,40.0625089 156.242188,38.28125 C156.242188,35.4218607 157.171866,33.2109453 159.03125,31.6484375 C160.890634,30.0859297 163.546858,29.3046875 167,29.3046875 C167.734379,29.3046875 168.605464,29.3710931 169.613281,29.5039062 C170.621099,29.6367194 171.265624,29.7343747 171.546875,29.796875 L180.6875,29.796875 Z M160.460938,59.703125 C160.460938,60.6875049 160.933589,61.4609347 161.878906,62.0234375 C162.824223,62.5859403 164.148429,62.8671875 165.851562,62.8671875 C168.414075,62.8671875 170.421868,62.5156285 171.875,61.8125 C173.328132,61.1093715 174.054688,60.1484436 174.054688,58.9296875 C174.054688,57.9453076 173.625004,57.2656269 172.765625,56.890625 C171.906246,56.5156231 170.578134,56.328125 168.78125,56.328125 L165.078125,56.328125 C163.765618,56.328125 162.667973,56.6367157 161.785156,57.2539062 C160.902339,57.8710968 160.460938,58.6874949 160.460938,59.703125 Z M163.0625,38.375 C163.0625,39.7968821 163.386716,40.9218709 164.035156,41.75 C164.683597,42.5781291 165.671868,42.9921875 167,42.9921875 C168.343757,42.9921875 169.328122,42.5781291 169.953125,41.75 C170.578128,40.9218709 170.890625,39.7968821 170.890625,38.375 C170.890625,35.2187342 169.593763,33.640625 167,33.640625 C164.374987,33.640625 163.0625,35.2187342 163.0625,38.375 Z M195.851562,34.390625 C194.33593,34.390625 193.148442,34.8710889 192.289062,35.8320312 C191.429683,36.7929736 190.937501,38.1562412 190.8125,39.921875 L200.84375,39.921875 C200.8125,38.1562412 200.351567,36.7929736 199.460938,35.8320312 C198.570308,34.8710889 197.367195,34.390625 195.851562,34.390625 Z M196.859375,56.46875 C192.640604,56.46875 189.343762,55.3046991 186.96875,52.9765625 C184.593738,50.6484259 183.40625,47.3515838 183.40625,43.0859375 C183.40625,38.6952905 184.503895,35.3007932 186.699219,32.9023438 C188.894542,30.5038943 191.929668,29.3046875 195.804688,29.3046875 C199.507831,29.3046875 202.390615,30.3593645 204.453125,32.46875 C206.515635,34.5781355 207.546875,37.4921689 207.546875,41.2109375 L207.546875,44.6796875 L190.648438,44.6796875 C190.726563,46.7109477 191.328119,48.2968693 192.453125,49.4375 C193.578131,50.5781307 195.15624,51.1484375 197.1875,51.1484375 C198.765633,51.1484375 200.257805,50.9843766 201.664062,50.65625 C203.07032,50.3281234 204.539055,49.8046875 206.070312,49.0859375 L206.070312,54.6171875 C204.820306,55.2421906 203.484382,55.7070297 202.0625,56.0117188 C200.640618,56.3164078 198.90626,56.46875 196.859375,56.46875 Z M221.1875,37.859375 L223.578125,37.859375 C225.812511,37.859375 227.484369,37.4179732 228.59375,36.5351562 C229.703131,35.6523393 230.257812,34.3671959 230.257812,32.6796875 C230.257812,30.976554 229.792973,29.7187541 228.863281,28.90625 C227.933589,28.0937459 226.476572,27.6875 224.492188,27.6875 L221.1875,27.6875 L221.1875,37.859375 Z M237.59375,32.421875 C237.59375,36.1093934 236.441418,38.9296777 234.136719,40.8828125 C231.83202,42.8359473 228.554709,43.8125 224.304688,43.8125 L221.1875,43.8125 L221.1875,56 L213.921875,56 L213.921875,21.734375 L224.867188,21.734375 C229.023458,21.734375 232.183583,22.6288973 234.347656,24.4179688 C236.51173,26.2070402 237.59375,28.8749823 237.59375,32.421875 Z M258.125,29.3046875 C259.093755,29.3046875 259.898434,29.3749993 260.539062,29.515625 L260,36.21875 C259.421872,36.0624992 258.718754,35.984375 257.890625,35.984375 C255.609364,35.984375 253.832038,36.5703066 252.558594,37.7421875 C251.28515,38.9140684 250.648438,40.554677 250.648438,42.6640625 L250.648438,56 L243.5,56 L243.5,29.796875 L248.914062,29.796875 L249.96875,34.203125 L250.320312,34.203125 C251.132817,32.7343677 252.230462,31.5507857 253.613281,30.6523438 C254.996101,29.7539018 256.5,29.3046875 258.125,29.3046875 Z M270.03125,42.8515625 C270.03125,45.4453255 270.457027,47.4062434 271.308594,48.734375 C272.160161,50.0625066 273.546865,50.7265625 275.46875,50.7265625 C277.37501,50.7265625 278.74609,50.0664129 279.582031,48.7460938 C280.417973,47.4257746 280.835938,45.4609505 280.835938,42.8515625 C280.835938,40.2577995 280.414067,38.3125065 279.570312,37.015625 C278.726558,35.7187435 277.34376,35.0703125 275.421875,35.0703125 C273.515615,35.0703125 272.140629,35.7148373 271.296875,37.0039062 C270.453121,38.2929752 270.03125,40.2421745 270.03125,42.8515625 Z M288.148438,42.8515625 C288.148438,47.1172088 287.023449,50.453113 284.773438,52.859375 C282.523426,55.265637 279.390645,56.46875 275.375,56.46875 C272.859362,56.46875 270.640635,55.9179743 268.71875,54.8164062 C266.796865,53.7148382 265.320318,52.1328228 264.289062,50.0703125 C263.257807,48.0078022 262.742188,45.6015763 262.742188,42.8515625 C262.742188,38.5702911 263.859364,35.2421994 266.09375,32.8671875 C268.328136,30.4921756 271.46873,29.3046875 275.515625,29.3046875 C278.031263,29.3046875 280.24999,29.851557 282.171875,30.9453125 C284.09376,32.039068 285.570307,33.6093648 286.601562,35.65625 C287.632818,37.7031352 288.148438,40.1015487 288.148438,42.8515625 Z M299.75,42.8515625 C299.75,45.4453255 300.175777,47.4062434 301.027344,48.734375 C301.878911,50.0625066 303.265615,50.7265625 305.1875,50.7265625 C307.09376,50.7265625 308.46484,50.0664129 309.300781,48.7460938 C310.136723,47.4257746 310.554688,45.4609505 310.554688,42.8515625 C310.554688,40.2577995 310.132817,38.3125065 309.289062,37.015625 C308.445308,35.7187435 307.06251,35.0703125 305.140625,35.0703125 C303.234365,35.0703125 301.859379,35.7148373 301.015625,37.0039062 C300.171871,38.2929752 299.75,40.2421745 299.75,42.8515625 Z M317.867188,42.8515625 C317.867188,47.1172088 316.742199,50.453113 314.492188,52.859375 C312.242176,55.265637 309.109395,56.46875 305.09375,56.46875 C302.578112,56.46875 300.359385,55.9179743 298.4375,54.8164062 C296.515615,53.7148382 295.039068,52.1328228 294.007812,50.0703125 C292.976557,48.0078022 292.460938,45.6015763 292.460938,42.8515625 C292.460938,38.5702911 293.578114,35.2421994 295.8125,32.8671875 C298.046886,30.4921756 301.18748,29.3046875 305.234375,29.3046875 C307.750013,29.3046875 309.96874,29.851557 311.890625,30.9453125 C313.81251,32.039068 315.289057,33.6093648 316.320312,35.65625 C317.351568,37.7031352 317.867188,40.1015487 317.867188,42.8515625 Z M338.257812,35.1640625 L332.070312,35.1640625 L332.070312,56 L324.921875,56 L324.921875,35.1640625 L320.984375,35.1640625 L320.984375,31.71875 L324.921875,29.796875 L324.921875,27.875 C324.921875,24.8906101 325.656243,22.7109444 327.125,21.3359375 C328.593757,19.9609306 330.945296,19.2734375 334.179688,19.2734375 C336.64845,19.2734375 338.84374,19.6406213 340.765625,20.375 L338.9375,25.625 C337.499993,25.1718727 336.171881,24.9453125 334.953125,24.9453125 C333.937495,24.9453125 333.203127,25.2460907 332.75,25.8476562 C332.296873,26.4492218 332.070312,27.2187453 332.070312,28.15625 L332.070312,29.796875 L338.257812,29.796875 L338.257812,35.1640625 Z M353.210938,34.390625 C351.695305,34.390625 350.507817,34.8710889 349.648438,35.8320312 C348.789058,36.7929736 348.296876,38.1562412 348.171875,39.921875 L358.203125,39.921875 C358.171875,38.1562412 357.710942,36.7929736 356.820312,35.8320312 C355.929683,34.8710889 354.72657,34.390625 353.210938,34.390625 Z M354.21875,56.46875 C349.999979,56.46875 346.703137,55.3046991 344.328125,52.9765625 C341.953113,50.6484259 340.765625,47.3515838 340.765625,43.0859375 C340.765625,38.6952905 341.86327,35.3007932 344.058594,32.9023438 C346.253917,30.5038943 349.289043,29.3046875 353.164062,29.3046875 C356.867206,29.3046875 359.74999,30.3593645 361.8125,32.46875 C363.87501,34.5781355 364.90625,37.4921689 364.90625,41.2109375 L364.90625,44.6796875 L348.007812,44.6796875 C348.085938,46.7109477 348.687494,48.2968693 349.8125,49.4375 C350.937506,50.5781307 352.515615,51.1484375 354.546875,51.1484375 C356.125008,51.1484375 357.61718,50.9843766 359.023438,50.65625 C360.429695,50.3281234 361.89843,49.8046875 363.429688,49.0859375 L363.429688,54.6171875 C362.179681,55.2421906 360.843757,55.7070297 359.421875,56.0117188 C357.999993,56.3164078 356.265635,56.46875 354.21875,56.46875 Z M385.34375,29.3046875 C386.312505,29.3046875 387.117184,29.3749993 387.757812,29.515625 L387.21875,36.21875 C386.640622,36.0624992 385.937504,35.984375 385.109375,35.984375 C382.828114,35.984375 381.050788,36.5703066 379.777344,37.7421875 C378.5039,38.9140684 377.867188,40.554677 377.867188,42.6640625 L377.867188,56 L370.71875,56 L370.71875,29.796875 L376.132812,29.796875 L377.1875,34.203125 L377.539062,34.203125 C378.351567,32.7343677 379.449212,31.5507857 380.832031,30.6523438 C382.214851,29.7539018 383.71875,29.3046875 385.34375,29.3046875 Z" id="PageProofer" fill="#000000" fill-rule="nonzero"></path>
        </g>
    </g>
</svg>